<?xml version="1.0" encoding="UTF-8" standalone="no" ?>
<!DOCTYPE svg PUBLIC "-//W3C//DTD SVG 1.1//EN" "http://www.w3.org/Graphics/SVG/1.1/DTD/svg11.dtd">
<svg xmlns="http://www.w3.org/2000/svg" xmlns:xlink="http://www.w3.org/1999/xlink" version="1.1" width="1080" height="1080" viewBox="0 0 1080 1080" xml:space="preserve">
<desc>Created with Fabric.js 5.2.4</desc>
    <defs>
</defs>
    <g transform="matrix(1 0 0 1 540 540)" id="e3be0838-b56f-40ca-af3d-07a2da96dac9"  >
<rect style="stroke: none; stroke-width: 1; stroke-dasharray: none; stroke-linecap: butt; stroke-dashoffset: 0; stroke-linejoin: miter; stroke-miterlimit: 4; fill: rgb(255,255,255); fill-rule: nonzero; opacity: 1; visibility: hidden;" vector-effect="non-scaling-stroke"  x="-540" y="-540" rx="0" ry="0" width="1080" height="1080" />
</g>
    <g transform="matrix(1 0 0 1 540 540)" id="a231005c-cd7f-48ae-be2a-34d2d9efda4c"  >
</g>
    <g transform="matrix(0 0 0 0 0 0)"  >
<g style=""   >
</g>
</g>
    <g transform="matrix(0 0 0 0 0 0)"  >
<g style=""   >
</g>
</g>
    <g transform="matrix(0 0 0 0 0 0)"  >
<g style=""   >
</g>
</g>
    <g transform="matrix(0 0 0 0 0 0)"  >
<g style=""   >
</g>
</g>
    <g transform="matrix(0 0 0 0 0 0)"  >
<g style=""   >
</g>
</g>
    <g transform="matrix(0 0 0 0 0 0)"  >
<g style=""   >
</g>
</g>
    <g transform="matrix(0 0 0 0 0 0)"  >
<g style=""   >
</g>
</g>
    <g transform="matrix(0 0 0 0 0 0)"  >
<g style=""   >
</g>
</g>
    <g transform="matrix(0 0 0 0 0 0)"  >
<g style=""   >
</g>
</g>
    <g transform="matrix(0 0 0 0 0 0)"  >
<g style=""   >
</g>
</g>
    <g transform="matrix(0 0 0 0 0 0)"  >
<g style=""   >
</g>
</g>
    <g transform="matrix(0 0 0 0 0 0)"  >
<g style=""   >
</g>
</g>
    <g transform="matrix(0 0 0 0 0 0)"  >
<g style=""   >
</g>
</g>
    <g transform="matrix(NaN NaN NaN NaN 0 0)"  >
<g style=""   >
</g>
</g>
    <g transform="matrix(NaN NaN NaN NaN 0 0)"  >
<g style=""   >
</g>
</g>
    <g transform="matrix(1 0 0 1 889.46 699.85)"  >
<g style=""   >
		<g transform="matrix(1 0 0 1 0 0)" id="e3be0838-b56f-40ca-af3d-07a2da96dac9"  >
<rect style="stroke: none; stroke-width: 1; stroke-dasharray: none; stroke-linecap: butt; stroke-dashoffset: 0; stroke-linejoin: miter; stroke-miterlimit: 4; fill: rgb(255,255,255); fill-rule: nonzero; opacity: 1; visibility: hidden;" vector-effect="non-scaling-stroke"  x="-540" y="-540" rx="0" ry="0" width="1080" height="1080" />
</g>
    <g transform="matrix(5.4 0 0 5.4 -421.2 -147.97)"  >
<path style="stroke: none; stroke-width: 1; stroke-dasharray: none; stroke-linecap: butt; stroke-dashoffset: 0; stroke-linejoin: miter; stroke-miterlimit: 4; fill: rgb(254,96,51); fill-rule: nonzero; opacity: 1;" vector-effect="non-scaling-stroke"  transform=" translate(-22, -22.59)" d="M 25.1809 14.1225 C 25.1809 13.9031 25.3588 13.7252 25.5782 13.7252 L 29.002 13.7252 C 29.2215 13.7252 29.3993 13.9031 29.3993 14.1225 L 29.3993 25.0236 C 29.3993 26.3294 29.0891 27.4669 28.4685 28.4362 C 27.848 29.3999 26.9827 30.1468 25.8726 30.6771 C 24.7625 31.2017 23.473 31.464 22.0043 31.464 C 20.5184 31.464 19.2204 31.2017 18.1103 30.6771 C 17.0002 30.1468 16.1378 29.3999 15.5229 28.4362 C 14.9081 27.4669 14.6007 26.3294 14.6007 25.0236 L 14.6007 14.1225 C 14.6007 13.9031 14.7785 13.7252 14.998 13.7252 L 18.4304 13.7252 C 18.6498 13.7252 18.8276 13.9031 18.8276 14.1225 L 18.8276 24.6558 C 18.8276 25.2603 18.9586 25.7991 19.2204 26.2723 C 19.488 26.7456 19.8609 27.1162 20.3391 27.3842 C 20.8173 27.6522 21.3724 27.7862 22.0043 27.7862 C 22.6362 27.7862 23.1884 27.6522 23.6609 27.3842 C 24.1391 27.1162 24.512 26.7456 24.7795 26.2723 C 25.0471 25.7991 25.1809 25.2603 25.1809 24.6558 L 25.1809 14.1225 Z" stroke-linecap="round" />
</g>
    <g transform="matrix(5.4 0 0 5.4 -318.17 -151.2)"  >
<path style="stroke: none; stroke-width: 1; stroke-dasharray: none; stroke-linecap: butt; stroke-dashoffset: 0; stroke-linejoin: miter; stroke-miterlimit: 4; fill: rgb(254,96,51); fill-rule: nonzero; opacity: 1;" vector-effect="non-scaling-stroke"  transform=" translate(-41.08, -22)" d="M 43.8053 21.009 L 38.3544 21.1577 C 38.2469 21.1577 38.1597 21.2464 38.1597 21.3559 L 38.1597 22.6441 C 38.1597 22.7536 38.2469 22.8423 38.3544 22.8423 L 43.8053 22.991 C 43.9128 22.991 44 22.9023 44 22.7928 L 44 21.2072 C 44 21.0977 43.9128 21.009 43.8053 21.009 Z" stroke-linecap="round" />
</g>
    <g transform="matrix(5.4 0 0 5.4 -421.36 -254.19)"  >
<path style="stroke: none; stroke-width: 1; stroke-dasharray: none; stroke-linecap: butt; stroke-dashoffset: 0; stroke-linejoin: miter; stroke-miterlimit: 4; fill: rgb(254,96,51); fill-rule: nonzero; opacity: 1;" vector-effect="non-scaling-stroke"  transform=" translate(-21.98, -2.92)" d="M 20.9854 0.194895 L 21.1339 5.65195 C 21.1339 5.75959 21.2225 5.84685 21.3318 5.84685 L 22.6187 5.84685 C 22.728 5.84685 22.8166 5.75959 22.8166 5.65195 L 22.9651 0.194895 C 22.9651 0.0872574 22.8765 0 22.7672 0 L 21.1834 0 C 21.074 0 20.9854 0.0872574 20.9854 0.194895 Z" stroke-linecap="round" />
</g>
    <g transform="matrix(5.4 0 0 5.4 -524.23 -151.2)"  >
<path style="stroke: none; stroke-width: 1; stroke-dasharray: none; stroke-linecap: butt; stroke-dashoffset: 0; stroke-linejoin: miter; stroke-miterlimit: 4; fill: rgb(254,96,51); fill-rule: nonzero; opacity: 1;" vector-effect="non-scaling-stroke"  transform=" translate(-2.92, -22)" d="M 0.194676 22.991 L 5.64559 22.8423 C 5.75311 22.8423 5.84027 22.7536 5.84027 22.6441 L 5.84027 21.3559 C 5.84027 21.2464 5.75311 21.1577 5.64559 21.1577 L 0.194676 21.009 C 0.0871592 21.009 0 21.0977 0 21.2072 L 0 22.7928 C 0 22.9023 0.0871592 22.991 0.194676 22.991 Z" stroke-linecap="round" />
</g>
    <g transform="matrix(5.4 0 0 5.4 -421.36 -48.2)"  >
<path style="stroke: none; stroke-width: 1; stroke-dasharray: none; stroke-linecap: butt; stroke-dashoffset: 0; stroke-linejoin: miter; stroke-miterlimit: 4; fill: rgb(254,96,51); fill-rule: nonzero; opacity: 1;" vector-effect="non-scaling-stroke"  transform=" translate(-21.98, -41.08)" d="M 22.9651 43.8051 L 22.8166 38.348 C 22.8166 38.2404 22.728 38.1532 22.6187 38.1532 L 21.3318 38.1532 C 21.2225 38.1532 21.1339 38.2404 21.1339 38.348 L 20.9854 43.8051 C 20.9854 43.9127 21.074 44 21.1833 44 L 22.7672 44 C 22.8765 44 22.9651 43.9127 22.9651 43.8051 Z" stroke-linecap="round" />
</g>
    <g transform="matrix(5.4 0 0 5.4 -322.22 -192.51)"  >
<path style="stroke: none; stroke-width: 1; stroke-dasharray: none; stroke-linecap: butt; stroke-dashoffset: 0; stroke-linejoin: miter; stroke-miterlimit: 4; fill: rgb(254,96,51); fill-rule: nonzero; opacity: 1;" vector-effect="non-scaling-stroke"  transform=" translate(-40.33, -14.35)" d="M 41.8338 13.0142 L 38.2967 14.5882 C 38.198 14.6292 38.1519 14.7443 38.1937 14.8455 L 38.4968 15.5779 C 38.5386 15.679 38.6526 15.7278 38.7513 15.6869 L 42.3641 14.296 C 42.4629 14.255 42.509 14.1399 42.4671 14.0387 L 42.0883 13.1232 C 42.0465 13.0221 41.9325 12.9733 41.8338 13.0142 Z" stroke-linecap="round" />
</g>
    <g transform="matrix(5.4 0 0 5.4 -345.29 -227.19)"  >
<path style="stroke: none; stroke-width: 1; stroke-dasharray: none; stroke-linecap: butt; stroke-dashoffset: 0; stroke-linejoin: miter; stroke-miterlimit: 4; fill: rgb(254,96,51); fill-rule: nonzero; opacity: 1;" vector-effect="non-scaling-stroke"  transform=" translate(-36.06, -7.93)" d="M 36.9007 6.10343 L 34.2345 8.91275 C 34.1589 8.98839 34.1604 9.11246 34.2377 9.18986 L 34.7976 9.75045 C 34.8749 9.82785 34.9989 9.82928 35.0744 9.75363 L 37.8806 7.08447 C 37.9561 7.00882 37.9547 6.88476 37.8774 6.80735 L 37.1774 6.10662 C 37.1001 6.02922 36.9762 6.02779 36.9007 6.10343 Z" stroke-linecap="round" />
</g>
    <g transform="matrix(5.4 0 0 5.4 -380.19 -250.31)"  >
<path style="stroke: none; stroke-width: 1; stroke-dasharray: none; stroke-linecap: butt; stroke-dashoffset: 0; stroke-linejoin: miter; stroke-miterlimit: 4; fill: rgb(254,96,51); fill-rule: nonzero; opacity: 1;" vector-effect="non-scaling-stroke"  transform=" translate(-29.6, -3.64)" d="M 29.6514 1.60834 L 28.262 5.22526 C 28.2211 5.32409 28.2699 5.43817 28.3709 5.48005 L 29.1025 5.78344 C 29.2035 5.82533 29.3186 5.77917 29.3594 5.68034 L 30.9317 2.13927 C 30.9726 2.04044 30.9238 1.92636 30.8228 1.88448 L 29.9083 1.50524 C 29.8073 1.46335 29.6923 1.50951 29.6514 1.60834 Z" stroke-linecap="round" />
</g>
    <g transform="matrix(5.4 0 0 5.4 -462.72 -250.31)"  >
<path style="stroke: none; stroke-width: 1; stroke-dasharray: none; stroke-linecap: butt; stroke-dashoffset: 0; stroke-linejoin: miter; stroke-miterlimit: 4; fill: rgb(254,96,51); fill-rule: nonzero; opacity: 1;" vector-effect="non-scaling-stroke"  transform=" translate(-14.32, -3.64)" d="M 12.9803 2.13927 L 14.5526 5.68034 C 14.5935 5.77917 14.7085 5.82533 14.8095 5.78344 L 15.5411 5.48005 C 15.6421 5.43816 15.6909 5.32409 15.65 5.22525 L 14.2606 1.60834 C 14.2198 1.50951 14.1047 1.46335 14.0037 1.50524 L 13.0892 1.88447 C 12.9882 1.92636 12.9394 2.04044 12.9803 2.13927 Z" stroke-linecap="round" />
</g>
    <g transform="matrix(5.4 0 0 5.4 -497.23 -227.19)"  >
<path style="stroke: none; stroke-width: 1; stroke-dasharray: none; stroke-linecap: butt; stroke-dashoffset: 0; stroke-linejoin: miter; stroke-miterlimit: 4; fill: rgb(254,96,51); fill-rule: nonzero; opacity: 1;" vector-effect="non-scaling-stroke"  transform=" translate(-7.92, -7.93)" d="M 6.09657 7.08446 L 8.90272 9.75362 C 8.97828 9.82927 9.10221 9.82784 9.17952 9.75044 L 9.73948 9.18985 C 9.81679 9.11245 9.81822 8.98838 9.74266 8.91274 L 7.07649 6.10342 C 7.00094 6.02778 6.87701 6.02921 6.7997 6.10661 L 6.09975 6.80735 C 6.02243 6.88475 6.02101 7.00881 6.09657 7.08446 Z" stroke-linecap="round" />
</g>
    <g transform="matrix(5.4 0 0 5.4 -520.34 -192.61)"  >
<path style="stroke: none; stroke-width: 1; stroke-dasharray: none; stroke-linecap: butt; stroke-dashoffset: 0; stroke-linejoin: miter; stroke-miterlimit: 4; fill: rgb(254,96,51); fill-rule: nonzero; opacity: 1;" vector-effect="non-scaling-stroke"  transform=" translate(-3.64, -14.33)" d="M 1.60654 14.2767 L 5.21939 15.6676 C 5.31811 15.7086 5.43205 15.6598 5.4739 15.5586 L 5.77694 14.8262 C 5.81879 14.7251 5.77268 14.6099 5.67396 14.5689 L 2.13687 12.9949 C 2.03815 12.954 1.9242 13.0028 1.88236 13.1039 L 1.50355 14.0195 C 1.46171 14.1206 1.50782 14.2358 1.60654 14.2767 Z" stroke-linecap="round" />
</g>
    <g transform="matrix(5.4 0 0 5.4 -520.29 -109.99)"  >
<path style="stroke: none; stroke-width: 1; stroke-dasharray: none; stroke-linecap: butt; stroke-dashoffset: 0; stroke-linejoin: miter; stroke-miterlimit: 4; fill: rgb(254,96,51); fill-rule: nonzero; opacity: 1;" vector-effect="non-scaling-stroke"  transform=" translate(-3.65, -29.64)" d="M 2.14599 30.973 L 5.68308 29.399 C 5.7818 29.3581 5.82791 29.2429 5.78606 29.1418 L 5.48302 28.4093 C 5.44117 28.3082 5.32723 28.2594 5.22851 28.3004 L 1.61566 29.6913 C 1.51694 29.7322 1.47083 29.8474 1.51267 29.9485 L 1.89148 30.8641 C 1.93332 30.9652 2.04727 31.014 2.14599 30.973 Z" stroke-linecap="round" />
</g>
    <g transform="matrix(5.4 0 0 5.4 -496.96 -75.08)"  >
<path style="stroke: none; stroke-width: 1; stroke-dasharray: none; stroke-linecap: butt; stroke-dashoffset: 0; stroke-linejoin: miter; stroke-miterlimit: 4; fill: rgb(254,96,51); fill-rule: nonzero; opacity: 1;" vector-effect="non-scaling-stroke"  transform=" translate(-7.97, -36.1)" d="M 7.12598 37.9232 L 9.79215 35.1139 C 9.8677 35.0383 9.86628 34.9142 9.78896 34.8368 L 9.229 34.2762 C 9.15169 34.1988 9.02776 34.1974 8.95221 34.273 L 6.14605 36.9422 C 6.07049 37.0179 6.07192 37.1419 6.14923 37.2193 L 6.84918 37.9201 C 6.9265 37.9975 7.05042 37.9989 7.12598 37.9232 Z" stroke-linecap="round" />
</g>
    <g transform="matrix(5.4 0 0 5.4 -462.72 -51.89)"  >
<path style="stroke: none; stroke-width: 1; stroke-dasharray: none; stroke-linecap: butt; stroke-dashoffset: 0; stroke-linejoin: miter; stroke-miterlimit: 4; fill: rgb(254,96,51); fill-rule: nonzero; opacity: 1;" vector-effect="non-scaling-stroke"  transform=" translate(-14.32, -40.4)" d="M 14.2607 42.4321 L 15.65 38.8152 C 15.6909 38.7163 15.6422 38.6022 15.5412 38.5604 L 14.8095 38.257 C 14.7085 38.2151 14.5935 38.2612 14.5526 38.3601 L 12.9803 41.9011 C 12.9394 42 12.9882 42.1141 13.0892 42.1559 L 14.0037 42.5352 C 14.1047 42.5771 14.2198 42.5309 14.2607 42.4321 Z" stroke-linecap="round" />
</g>
    <g transform="matrix(5.4 0 0 5.4 -380.19 -51.89)"  >
<path style="stroke: none; stroke-width: 1; stroke-dasharray: none; stroke-linecap: butt; stroke-dashoffset: 0; stroke-linejoin: miter; stroke-miterlimit: 4; fill: rgb(254,96,51); fill-rule: nonzero; opacity: 1;" vector-effect="non-scaling-stroke"  transform=" translate(-29.6, -40.4)" d="M 30.9317 41.9011 L 29.3594 38.3601 C 29.3185 38.2612 29.2035 38.2151 29.1025 38.257 L 28.3709 38.5604 C 28.2698 38.6023 28.2211 38.7163 28.262 38.8152 L 29.6513 42.4321 C 29.6922 42.5309 29.8073 42.5771 29.9083 42.5352 L 30.8228 42.1559 C 30.9238 42.1141 30.9726 42 30.9317 41.9011 Z" stroke-linecap="round" />
</g>
    <g transform="matrix(5.4 0 0 5.4 -345.29 -75.08)"  >
<path style="stroke: none; stroke-width: 1; stroke-dasharray: none; stroke-linecap: butt; stroke-dashoffset: 0; stroke-linejoin: miter; stroke-miterlimit: 4; fill: rgb(254,96,51); fill-rule: nonzero; opacity: 1;" vector-effect="non-scaling-stroke"  transform=" translate(-36.06, -36.1)" d="M 37.8806 36.9422 L 35.0744 34.273 C 34.9989 34.1974 34.8749 34.1988 34.7976 34.2762 L 34.2377 34.8368 C 34.1603 34.9142 34.1589 35.0383 34.2345 35.1139 L 36.9006 37.9232 C 36.9762 37.9989 37.1001 37.9975 37.1774 37.9201 L 37.8774 37.2193 C 37.9547 37.1419 37.9561 37.0179 37.8806 36.9422 Z" stroke-linecap="round" />
</g>
    <g transform="matrix(5.4 0 0 5.4 -322.11 -110)"  >
<path style="stroke: none; stroke-width: 1; stroke-dasharray: none; stroke-linecap: butt; stroke-dashoffset: 0; stroke-linejoin: miter; stroke-miterlimit: 4; fill: rgb(254,96,51); fill-rule: nonzero; opacity: 1;" vector-effect="non-scaling-stroke"  transform=" translate(-40.35, -29.63)" d="M 42.3843 29.6848 L 38.7715 28.2938 C 38.6728 28.2529 38.5588 28.3017 38.517 28.4028 L 38.2139 29.1353 C 38.1721 29.2364 38.2182 29.3516 38.3169 29.3925 L 41.854 30.9665 C 41.9527 31.0075 42.0667 30.9587 42.1085 30.8575 L 42.4873 29.942 C 42.5292 29.8409 42.4831 29.7257 42.3843 29.6848 Z" stroke-linecap="round" />
</g>
    <g transform="matrix(5.4 0 0 5.4 -418.2 -293.37)"  >
<polygon style="stroke: none; stroke-width: 1; stroke-dasharray: none; stroke-linecap: butt; stroke-dashoffset: 0; stroke-linejoin: miter; stroke-miterlimit: 4; fill: rgb(254,96,51); fill-rule: nonzero; opacity: 1;" vector-effect="non-scaling-stroke"  points="-5,-5 5,-5 0,5 " />
</g>
    <g transform="matrix(5.4 0 0 5.4 -208.84 -254.74)"  >
<circle style="stroke: none; stroke-width: 1; stroke-dasharray: none; stroke-linecap: butt; stroke-dashoffset: 0; stroke-linejoin: miter; stroke-miterlimit: 4; fill: rgb(254,96,51); fill-rule: nonzero; opacity: 1;" vector-effect="non-scaling-stroke"  cx="0" cy="0" r="5" />
</g>
    <g transform="matrix(5.4 0 0 5.4 -208.84 -175.83)"  >
<line style="stroke: rgb(254,96,51); stroke-width: 2; stroke-dasharray: none; stroke-linecap: butt; stroke-dashoffset: 0; stroke-linejoin: miter; stroke-miterlimit: 4; fill: rgb(254,96,51); fill-rule: nonzero; opacity: 1;" vector-effect="non-scaling-stroke"  x1="0" y1="-10" x2="0" y2="10" />
</g>
    <g transform="matrix(5.4 0 0 5.4 -262.84 -202.83)"  >
<line style="stroke: rgb(254,96,51); stroke-width: 2; stroke-dasharray: none; stroke-linecap: butt; stroke-dashoffset: 0; stroke-linejoin: miter; stroke-miterlimit: 4; fill: rgb(254,96,51); fill-rule: nonzero; opacity: 1;" vector-effect="non-scaling-stroke"  x1="10" y1="0" x2="-10" y2="0" />
</g>
    <g transform="matrix(5.4 0 0 5.4 -181.84 -189.33)"  >
<line style="stroke: rgb(254,96,51); stroke-width: 2; stroke-dasharray: none; stroke-linecap: butt; stroke-dashoffset: 0; stroke-linejoin: miter; stroke-miterlimit: 4; fill: rgb(254,96,51); fill-rule: nonzero; opacity: 1;" vector-effect="non-scaling-stroke"  x1="-5" y1="-2.5" x2="5" y2="2.5" />
</g>
    <g transform="matrix(5.4 0 0 5.4 -222.34 -81.33)"  >
<line style="stroke: rgb(254,96,51); stroke-width: 2; stroke-dasharray: none; stroke-linecap: butt; stroke-dashoffset: 0; stroke-linejoin: miter; stroke-miterlimit: 4; fill: rgb(254,96,51); fill-rule: nonzero; opacity: 1;" vector-effect="non-scaling-stroke"  x1="2.5" y1="-7.5" x2="-2.5" y2="7.5" />
</g>
    <g transform="matrix(5.4 0 0 5.4 -195.34 -81.33)"  >
<line style="stroke: rgb(254,96,51); stroke-width: 2; stroke-dasharray: none; stroke-linecap: butt; stroke-dashoffset: 0; stroke-linejoin: miter; stroke-miterlimit: 4; fill: rgb(254,96,51); fill-rule: nonzero; opacity: 1;" vector-effect="non-scaling-stroke"  x1="-2.5" y1="-7.5" x2="2.5" y2="7.5" />
</g>
</g>
</g>
</svg>