<svg
        xmlns="http://www.w3.org/2000/svg"
        viewBox="0 0 100 100"
        width="100"
        height="100"
        fill="currentColor"
>
    <!-- Outer Wheel -->
    <circle cx="40" cy="50" r="30" stroke="black" stroke-width="3" fill="white"/>

    <!-- Wheel Divisions -->
    <line x1="40" y1="20" x2="40" y2="50" stroke="black" stroke-width="2"/>
    <line x1="10" y1="50" x2="40" y2="50" stroke="black" stroke-width="2"/>
    <line x1="40" y1="80" x2="40" y2="50" stroke="black" stroke-width="2"/>
    <line x1="70" y1="50" x2="40" y2="50" stroke="black" stroke-width="2"/>
    <line x1="55" y1="25" x2="40" y2="50" stroke="black" stroke-width="2"/>
    <line x1="25" y1="25" x2="40" y2="50" stroke="black" stroke-width="2"/>
    <line x1="25" y1="75" x2="40" y2="50" stroke="black" stroke-width="2"/>
    <line x1="55" y1="75" x2="40" y2="50" stroke="black" stroke-width="2"/>

    <!-- Center Circle (Pin) -->
    <circle cx="40" cy="50" r="3" fill="black"/>

    <!-- Pointer at the Top -->
    <polygon points="35,15 45,15 40,25" fill="black"/>

    <!-- Stick Figure (Person) -->
    <!-- Head -->
    <circle cx="75" cy="40" r="5" fill="black"/>

    <!-- Body -->
    <line x1="75" y1="45" x2="75" y2="65" stroke="black" stroke-width="2"/>

    <!-- Arms -->
    <line x1="75" y1="50" x2="55" y2="50" stroke="black" stroke-width="2"/>  <!-- Right arm spinning -->
    <line x1="75" y1="50" x2="85" y2="55" stroke="black" stroke-width="2"/>   <!-- Left arm -->

    <!-- Legs -->
    <line x1="75" y1="65" x2="70" y2="80" stroke="black" stroke-width="2"/>
    <line x1="75" y1="65" x2="80" y2="80" stroke="black" stroke-width="2"/>
</svg>
